<svg id="Layer_1" data-name="Layer 1" xmlns="http://www.w3.org/2000/svg" xmlns:xlink="http://www.w3.org/1999/xlink" viewBox="0 0 273.8 275.76"><defs><style>.cls-1{fill:url(#linear-gradient);}.cls-2{fill:url(#linear-gradient-2);}.cls-3{fill:#fffff5;}</style><linearGradient id="linear-gradient" x1="135.53" x2="135.53" y2="275.76" gradientUnits="userSpaceOnUse"><stop offset="0" stop-color="#ff9f85"/><stop offset="1" stop-color="#ef1f14"/></linearGradient><linearGradient id="linear-gradient-2" x1="152" y1="56.58" x2="152" y2="218.06" gradientUnits="userSpaceOnUse"><stop offset="0" stop-color="#fcf0be"/><stop offset="1" stop-color="#fec41b"/></linearGradient></defs><polygon class="cls-1" points="0 81.23 93.63 97.48 66.69 61.56 111.59 82.09 83.37 0 156.48 73.96 172.02 9.2 188.97 74.39 253.1 13.68 214.19 118.43 271.06 140.23 208.21 158.61 271.06 275.76 168.91 181.24 115.01 272.34 113.3 194.18 8.98 218.47 94.52 160.89 24.8 158.19 89.04 135.42 0 81.23"/><polygon class="cls-2" points="110.7 93.27 136.24 105.59 119.34 56.58 161.56 102.76 171.19 63.66 181.53 103.18 218.22 66.78 195.69 126.84 229.83 140.44 191.44 149.93 229.12 218.06 168.78 161.68 137.05 216.93 135.53 170.61 79.26 183.78 126.14 151.63 90.59 148.51 122.14 137.07 74.16 106.3 126.43 114.23 110.7 93.27"/><polygon class="cls-3" points="143.7 99.31 164.64 118.37 169.88 100.62 173.81 118.37 193.88 101.5 182.1 130.88 198.24 138.88 179.62 142.51 198.24 178.15 168.57 149.93 152 176.99 152 153.13 125.66 161.86 145 145.57 127.26 144.12 142.97 137.32 121.3 121.72 145.8 126.7 137 112.99 152 121.72 143.7 99.31"/></svg>